<?xml version="1.0" encoding="UTF-8"?>
<svg width="48px" height="48px" viewBox="0 0 48 48" version="1.1" xmlns="http://www.w3.org/2000/svg">
  <g stroke="none" stroke-width="1" fill="none" fill-rule="evenodd">
    <g fill="#3D2C8D">
      <path d="M24,4 C18.48,4 14,8.48 14,14 C14,19.52 18.48,24 24,24 C29.52,24 34,19.52 34,14 C34,8.48 29.52,4 24,4 Z M24,22 C19.58,22 16,18.42 16,14 C16,9.58 19.58,6 24,6 C28.42,6 32,9.58 32,14 C32,18.42 28.42,22 24,22 Z" fill-rule="nonzero"/>
      <path d="M36,28 L36,44 L32,40 L28,44 L28,28 L12,28 L12,26 C12,25.448 12.448,25 13,25 L35,25 C35.552,25 36,25.448 36,26 L36,28 Z" fill-rule="nonzero"/>
      <path d="M25,32 L13,32 C12.448,32 12,32.448 12,33 L12,43 C12,43.552 12.448,44 13,44 L25,44 C25.552,44 26,43.552 26,43 L26,33 C26,32.448 25.552,32 25,32 Z M24,42 L14,42 L14,34 L24,34 L24,42 Z" fill-rule="nonzero"/>
    </g>
  </g>
</svg>