<?xml version="1.0" encoding="UTF-8"?>
<svg width="48px" height="48px" viewBox="0 0 48 48" version="1.1" xmlns="http://www.w3.org/2000/svg">
  <g stroke="none" stroke-width="1" fill="none" fill-rule="evenodd">
    <g fill="#3D2C8D">
      <path d="M24,4 C12.96,4 4,12.96 4,24 C4,35.04 12.96,44 24,44 C35.04,44 44,35.04 44,24 C44,12.96 35.04,4 24,4 Z M24,40 C15.18,40 8,32.82 8,24 C8,15.18 15.18,8 24,8 C32.82,8 40,15.18 40,24 C40,32.82 32.82,40 24,40 Z" fill-rule="nonzero"/>
      <path d="M24,14 L22,14 L22,24 L31,29 L32,27.24 L24,22.74 L24,14 Z" fill-rule="nonzero"/>
      <path d="M31,18 L34,18 L34,16 L32,16 L32,14 L30,14 L30,16 L28,16 L28,22 L30,22 L30,18 L31,18 Z" fill-rule="nonzero"/>
      <path d="M20,34 L24,34 L24,32 L20,32 L20,34 Z" fill-rule="nonzero"/>
      <path d="M14,34 L18,34 L18,32 L14,32 L14,34 Z" fill-rule="nonzero"/>
      <path d="M26,34 L34,34 L34,32 L26,32 L26,34 Z" fill-rule="nonzero"/>
    </g>
  </g>
</svg>