<?xml version="1.0" encoding="UTF-8"?>
<svg width="48px" height="48px" viewBox="0 0 48 48" version="1.1" xmlns="http://www.w3.org/2000/svg">
  <g stroke="none" stroke-width="1" fill="none" fill-rule="evenodd">
    <g fill="#3D2C8D">
      <path d="M24,4 L8,10 L8,22 C8,31.94 14.8,41.38 24,44 C33.2,41.38 40,31.94 40,22 L40,10 L24,4 Z M36,22 C36,30.08 30.62,37.94 24,40.34 C17.38,37.94 12,30.08 12,22 L12,12.8 L24,8.36 L36,12.8 L36,22 Z" fill-rule="nonzero"/>
      <path d="M22,34 L22,28 L18,28 L18,24 L26,24 L26,34 L30,34 L24,40 L18,34 L22,34 Z" fill-rule="nonzero"/>
    </g>
  </g>
</svg>