<?xml version="1.0" encoding="UTF-8"?>
<svg width="48px" height="48px" viewBox="0 0 48 48" version="1.1" xmlns="http://www.w3.org/2000/svg">
  <g stroke="none" stroke-width="1" fill="none" fill-rule="evenodd">
    <g fill="#3D2C8D">
      <path d="M24,4 C12.96,4 4,12.96 4,24 C4,35.04 12.96,44 24,44 C35.04,44 44,35.04 44,24 C44,12.96 35.04,4 24,4 Z M24,40 C15.18,40 8,32.82 8,24 C8,15.18 15.18,8 24,8 C32.82,8 40,15.18 40,24 C40,32.82 32.82,40 24,40 Z" fill-rule="nonzero"/>
      <path d="M28.7,17.3 C28.3,16.9 27.7,16.9 27.3,17.3 L20,24.6 L16.7,21.3 C16.3,20.9 15.7,20.9 15.3,21.3 C14.9,21.7 14.9,22.3 15.3,22.7 L19.3,26.7 C19.5,26.9 19.7,27 20,27 C20.3,27 20.5,26.9 20.7,26.7 L28.7,18.7 C29.1,18.3 29.1,17.7 28.7,17.3 Z" fill-rule="nonzero"/>
      <path d="M31,30 L17,30 C16.45,30 16,30.45 16,31 C16,31.55 16.45,32 17,32 L31,32 C31.55,32 32,31.55 32,31 C32,30.45 31.55,30 31,30 Z" fill-rule="nonzero"/>
    </g>
  </g>
</svg>